Coordinates
version=1
nRows=10
nColumns=40
inDegrees=yes

Units are S.I. units (second, meters, Newtons, ...)
Angles are in degrees.

endheader
time	pelvis_tilt	pelvis_list	pelvis_rotation	pelvis_tx	pelvis_ty	pelvis_tz	hip_flexion_r	hip_adduction_r	hip_rotation_r	knee_angle_r	knee_angle_r_beta	ankle_angle_r	subtalar_angle_r	mtp_angle_r	hip_flexion_l	hip_adduction_l	hip_rotation_l	knee_angle_l	knee_angle_l_beta	ankle_angle_l	subtalar_angle_l	mtp_angle_l	lumbar_extension	lumbar_bending	lumbar_rotation	arm_flex_r	arm_add_r	arm_rot_r	elbow_flex_r	pro_sup_r	wrist_flex_r	wrist_dev_r	arm_flex_l	arm_add_l	arm_rot_l	elbow_flex_l	pro_sup_l	wrist_flex_l	wrist_dev_l
     13.18250000	     -4.78741062	     -4.69201181	      4.58872586	      1.04279478	      0.92476929	      0.43896766	      4.23130377	     -2.20057141	    -14.86301622	     25.48423613	     25.48423613	     14.93260341	     -3.08831676	     -7.50631008	     24.95435889	     -6.11472469	     -0.57172238	     25.26366547	     25.26366547	      7.94969550	    -12.98027868	      3.71205378	     -7.55327473	      3.50342411	      3.85173064	     29.47660806	    -15.94380906	     -5.68634943	     73.83518778	     45.37633916	      0.00000000	      0.00000000	     -1.36918194	     -9.57392079	      3.96850452	     28.98097903	     43.96488838	      0.00000000	      0.00000000
     13.19571429	     -4.67556103	     -4.66103621	      4.32396097	      1.04299793	      0.92554675	      0.43621681	      5.40102071	     -2.82295189	    -14.24922856	     28.43700981	     28.43700981	     14.18501150	     -4.22171985	     -8.30357873	     24.29466583	     -6.03669277	     -0.84957087	     25.15072531	     25.15072531	      8.32917427	    -12.82608772	      3.53904339	     -7.61896839	      3.43305712	      3.99073613	     27.99117927	    -15.79218353	     -5.26712605	     72.17588462	     45.40999836	      0.00000000	      0.00000000	     -0.11366872	     -9.85753113	      3.99779427	     29.59040535	     43.99538896	      0.00000000	      0.00000000
     13.20892857	     -4.57460113	     -4.48490007	      4.09338198	      1.04286064	      0.92616714	      0.43334040	      6.80490950	     -3.61355520	    -13.48466729	     31.72669070	     31.72669070	     13.20525714	     -5.56056863	     -9.18355160	     23.70454880	     -5.80731548	     -1.32487598	     25.10638419	     25.10638419	      8.56794761	    -12.67000333	      3.38664121	     -7.73253726	      3.29501883	      4.10238900	     26.61677032	    -15.69384799	     -4.82284884	     70.35757334	     45.44839743	      0.00000000	      0.00000000	      1.19190434	    -10.17274119	      4.03325335	     30.27352900	     44.02318439	      0.00000000	      0.00000000
     13.22214286	     -4.48675736	     -4.39655802	      3.83993264	      1.04262304	      0.92659505	      0.43068811	      8.32919769	     -4.27424838	    -12.69317757	     35.09271600	     35.09271600	     11.96409215	     -7.01227776	    -10.06068607	     23.12847535	     -5.66543855	     -1.68062086	     25.04917091	     25.04917091	      8.91055120	    -12.56240799	      3.19100709	     -7.80463570	      3.25940019	      4.17908908	     25.23017510	    -15.52349322	     -4.32372135	     68.37712086	     45.48992614	      0.00000000	      0.00000000	      2.49353113	    -10.52639087	      4.08640510	     31.03023050	     44.04751521	      0.00000000	      0.00000000
     13.23535714	     -4.41018494	     -4.30719444	      3.59784419	      1.04220983	      0.92685805	      0.42815359	      9.97720169	     -4.88053208	    -11.81771583	     38.53793447	     38.53793447	     10.42365339	     -8.59847434	    -10.90187746	     22.60660944	     -5.51823909	     -2.03632858	     25.04311848	     25.04311848	      9.26834620	    -12.50714782	      2.96815308	     -7.84572487	      3.16638547	      4.21942353	     23.90590031	    -15.37678153	     -3.80180789	     66.19091872	     45.53753797	      0.00000000	      0.00000000	      3.78541177	    -10.91066861	      4.17301826	     31.89191819	     44.06752639	      0.00000000	      0.00000000
     13.24857143	     -4.23967250	     -4.23666236	      3.40768599	      1.04166141	      0.92716046	      0.42567185	     11.55735288	     -5.44171318	    -11.03550852	     41.94723998	     41.94723998	      8.70420338	    -10.04426114	    -11.49227773	     22.04475440	     -5.38473959	     -2.30939752	     25.10302183	     25.10302183	      9.57681283	    -12.45867388	      2.76274136	     -8.05297533	      3.16197771	      4.13854841	     22.55608831	    -15.13797267	     -3.30524627	     64.13244664	     45.58148551	      0.00000000	      0.00000000	      5.10667957	    -11.32988057	      4.25603878	     32.78549759	     44.08673244	      0.00000000	      0.00000000
     13.26178571	     -4.11656978	     -4.16522468	      3.21033516	      1.04105484	      0.92717994	      0.42340372	     13.27304134	     -5.92204802	    -10.13526367	     45.38378850	     45.38378850	      6.84995868	    -11.56283763	    -11.91196267	     21.54278993	     -5.24792828	     -2.53986477	     25.17661025	     25.17661025	     10.02913999	    -12.44742755	      2.49205524	     -8.11592293	      3.08341573	      4.09498977	     21.19904752	    -14.95960352	     -2.81296718	     61.81493841	     45.63408858	      0.00000000	      0.00000000	      6.43928151	    -11.77194658	      4.38061799	     33.82298572	     44.10209232	      0.00000000	      0.00000000
     13.27500000	     -4.01434975	     -4.19537703	      3.03443508	      1.04029188	      0.92720885	      0.42128155	     14.98766826	     -6.17998808	     -9.21421871	     48.59861658	     48.59861658	      4.77525973	    -13.18667169	    -12.14014548	     21.12479705	     -5.23078102	     -2.74371433	     25.29716473	     25.29716473	     10.39042197	    -12.39682310	      2.22311261	     -8.17407378	      3.15927224	      4.04571430	     20.08335282	    -14.78519666	     -2.22841255	     58.50367409	     45.71670138	      0.00000000	      0.00000000	      7.61859899	    -12.27417292	      4.76198350	     35.24425523	     44.09447636	      0.00000000	      0.00000000
     13.28821429	     -3.83210563	     -4.11869533	      2.90110833	      1.03951595	      0.92726666	      0.41912846	     16.58839642	     -6.57333209	     -8.40873835	     51.70118463	     51.70118463	      3.01389865	    -14.13696037	    -11.90770605	     20.61110588	     -5.08233845	     -2.89498543	     25.41423668	     25.41423668	     10.81649174	    -12.30341625	      1.97108464	     -8.36621684	      3.21721823	      3.79045872	     18.84285037	    -14.45634903	     -1.75856763	     55.85968298	     45.78008395	      0.00000000	      0.00000000	      8.84498435	    -12.87485159	      5.06530321	     36.53344290	     44.09675902	      0.00000000	      0.00000000
     13.30142857	     -3.52760746	     -4.17670315	      2.80883143	      1.03878923	      0.92757238	      0.41732376	     17.99885465	     -6.75491709	     -7.75809957	     54.60085864	     54.60085864	      1.86392378	    -14.51317942	     -9.86824888	     20.02077739	     -5.14418885	     -3.17405263	     25.59317066	     25.59317066	     11.22123138	    -12.07364182	      1.76027792	     -8.56029147	      3.27378666	      2.70350632	     19.23082871	    -13.40569693	     -0.95389038	     49.76856394	     45.94084900	      0.00000000	      0.00000000	      9.05763111	    -14.32730975	      6.84891035	     39.32924273	     44.00597380	      0.00000000	      0.00000000
